<svg xmlns="http://www.w3.org/2000/svg" version="1.1" xmlns:xlink="http://www.w3.org/1999/xlink" xmlns:svgjs="http://svgjs.dev/svgjs" width="2000" height="570" viewBox="0 0 2000 570"><g transform="matrix(1,0,0,1,-1.2121212121212466,-1.137819546088906)"><svg viewBox="0 0 396 113" data-background-color="#ffffff" preserveAspectRatio="xMidYMid meet" height="570" width="2000" xmlns="http://www.w3.org/2000/svg" xmlns:xlink="http://www.w3.org/1999/xlink"><g id="tight-bounds" transform="matrix(1,0,0,1,0.2400000000000091,0.22556773457552026)"><svg viewBox="0 0 395.52 112.54886453084899" height="112.54886453084899" width="395.52"><g><svg viewBox="0 0 395.52 112.54886453084899" height="112.54886453084899" width="395.52"><g transform="matrix(1,0,0,1,0,69.559713516574)"><svg viewBox="0 0 395.52 42.98915101427498" height="42.98915101427498" width="395.52"><g id="textblocktransform"><svg viewBox="0 0 395.52 42.98915101427498" height="42.98915101427498" width="395.52" id="textblock"><g><svg viewBox="0 0 395.52 42.98915101427498" height="42.98915101427498" width="395.52"><g transform="matrix(1,0,0,1,0,0)"><svg width="395.52" viewBox="5.03 -43.07 389.92 42.39" height="42.98915101427498" data-palette-color="#332885"><path d="M7.96-0.68L7.96-0.68 17.04-0.68Q18.41-0.68 19.19-1.42 19.97-2.15 19.97-3.13 19.97-4.1 19.19-4.83 18.41-5.57 17.04-5.57L17.04-5.57 7.96-5.57Q6.59-5.57 5.81-4.83 5.03-4.1 5.03-3.13 5.03-2.15 5.81-1.42 6.59-0.68 7.96-0.68ZM39.21-0.68L39.21-0.68 48.29-0.68Q49.66-0.68 50.44-1.42 51.22-2.15 51.22-3.13 51.22-4.1 50.44-4.83 49.66-5.57 48.29-5.57L48.29-5.57 39.21-5.57Q37.84-5.57 37.06-4.83 36.28-4.1 36.28-3.13 36.28-2.15 37.06-1.42 37.84-0.68 39.21-0.68ZM7.96-6.93L7.96-6.93 23.29-6.93Q24.66-6.93 25.44-7.67 26.22-8.4 26.22-9.38 26.22-10.35 25.44-11.08 24.66-11.82 23.29-11.82L23.29-11.82 7.96-11.82Q6.59-11.82 5.81-11.08 5.03-10.35 5.03-9.38 5.03-8.4 5.81-7.67 6.59-6.93 7.96-6.93ZM32.96-6.93L32.96-6.93 48.29-6.93Q49.66-6.93 50.44-7.67 51.22-8.4 51.22-9.38 51.22-10.35 50.44-11.08 49.66-11.82 48.29-11.82L48.29-11.82 32.96-11.82Q31.59-11.82 30.81-11.08 30.03-10.35 30.03-9.38 30.03-8.4 30.81-7.67 31.59-6.93 32.96-6.93ZM7.96-13.18L7.96-13.18 48.29-13.18Q49.66-13.18 50.44-13.92 51.22-14.65 51.22-15.63 51.22-16.6 50.44-17.33 49.66-18.07 48.29-18.07L48.29-18.07 7.96-18.07Q6.59-18.07 5.81-17.33 5.03-16.6 5.03-15.63 5.03-14.65 5.81-13.92 6.59-13.18 7.96-13.18ZM7.96-19.43L7.96-19.43 17.04-19.43Q18.41-19.43 19.19-20.17 19.97-20.9 19.97-21.88 19.97-22.85 19.19-23.58 18.41-24.32 17.04-24.32L17.04-24.32 7.96-24.32Q6.59-24.32 5.81-23.58 5.03-22.85 5.03-21.88 5.03-20.9 5.81-20.17 6.59-19.43 7.96-19.43ZM26.27-19.43L26.27-19.43 29.98-19.43Q31.05-19.43 31.76-20.17 32.47-20.9 32.47-21.88 32.47-22.85 31.76-23.58 31.05-24.32 29.98-24.32L29.98-24.32 26.27-24.32Q25.2-24.32 24.49-23.58 23.78-22.85 23.78-21.88 23.78-20.9 24.49-20.17 25.2-19.43 26.27-19.43ZM39.21-19.43L39.21-19.43 48.29-19.43Q49.66-19.43 50.44-20.17 51.22-20.9 51.22-21.88 51.22-22.85 50.44-23.58 49.66-24.32 48.29-24.32L48.29-24.32 39.21-24.32Q37.84-24.32 37.06-23.58 36.28-22.85 36.28-21.88 36.28-20.9 37.06-20.17 37.84-19.43 39.21-19.43ZM7.96-25.68L7.96-25.68 17.04-25.68Q18.41-25.68 19.19-26.42 19.97-27.15 19.97-28.13 19.97-29.1 19.19-29.83 18.41-30.57 17.04-30.57L17.04-30.57 7.96-30.57Q6.59-30.57 5.81-29.83 5.03-29.1 5.03-28.13 5.03-27.15 5.81-26.42 6.59-25.68 7.96-25.68ZM39.21-25.68L39.21-25.68 48.29-25.68Q49.66-25.68 50.44-26.42 51.22-27.15 51.22-28.13 51.22-29.1 50.44-29.83 49.66-30.57 48.29-30.57L48.29-30.57 39.21-30.57Q37.84-30.57 37.06-29.83 36.28-29.1 36.28-28.13 36.28-27.15 37.06-26.42 37.84-25.68 39.21-25.68ZM7.96-31.93L7.96-31.93 17.04-31.93Q18.41-31.93 19.19-32.67 19.97-33.4 19.97-34.38 19.97-35.35 19.19-36.08 18.41-36.82 17.04-36.82L17.04-36.82 7.96-36.82Q6.59-36.82 5.81-36.08 5.03-35.35 5.03-34.38 5.03-33.4 5.81-32.67 6.59-31.93 7.96-31.93ZM39.21-31.93L39.21-31.93 48.29-31.93Q49.66-31.93 50.44-32.67 51.22-33.4 51.22-34.38 51.22-35.35 50.44-36.08 49.66-36.82 48.29-36.82L48.29-36.82 39.21-36.82Q37.84-36.82 37.06-36.08 36.28-35.35 36.28-34.38 36.28-33.4 37.06-32.67 37.84-31.93 39.21-31.93ZM7.96-38.18L7.96-38.18 17.04-38.18Q18.41-38.18 19.19-38.92 19.97-39.65 19.97-40.63 19.97-41.6 19.19-42.33 18.41-43.07 17.04-43.07L17.04-43.07 7.96-43.07Q6.59-43.07 5.81-42.33 5.03-41.6 5.03-40.63 5.03-39.65 5.81-38.92 6.59-38.18 7.96-38.18ZM39.21-38.18L39.21-38.18 48.29-38.18Q49.66-38.18 50.44-38.92 51.22-39.65 51.22-40.63 51.22-41.6 50.44-42.33 49.66-43.07 48.29-43.07L48.29-43.07 39.21-43.07Q37.84-43.07 37.06-42.33 36.28-41.6 36.28-40.63 36.28-39.65 37.06-38.92 37.84-38.18 39.21-38.18ZM64.21-0.68L64.21-0.68 85.79-0.68Q87.16-0.68 87.94-1.42 88.72-2.15 88.72-3.13 88.72-4.1 87.94-4.83 87.16-5.57 85.79-5.57L85.79-5.57 64.21-5.57Q62.84-5.57 62.06-4.83 61.28-4.1 61.28-3.13 61.28-2.15 62.06-1.42 62.84-0.68 64.21-0.68ZM57.96-6.93L57.96-6.93 67.04-6.93Q68.41-6.93 69.19-7.67 69.97-8.4 69.97-9.38 69.97-10.35 69.19-11.08 68.41-11.82 67.04-11.82L67.04-11.82 57.96-11.82Q56.59-11.82 55.81-11.08 55.03-10.35 55.03-9.38 55.03-8.4 55.81-7.67 56.59-6.93 57.96-6.93ZM82.96-6.93L82.96-6.93 92.04-6.93Q93.41-6.93 94.19-7.67 94.97-8.4 94.97-9.38 94.97-10.35 94.19-11.08 93.41-11.82 92.04-11.82L92.04-11.82 82.96-11.82Q81.59-11.82 80.81-11.08 80.03-10.35 80.03-9.38 80.03-8.4 80.81-7.67 81.59-6.93 82.96-6.93ZM57.96-13.18L57.96-13.18 67.04-13.18Q68.41-13.18 69.19-13.92 69.97-14.65 69.97-15.63 69.97-16.6 69.19-17.33 68.41-18.07 67.04-18.07L67.04-18.07 57.96-18.07Q56.59-18.07 55.81-17.33 55.03-16.6 55.03-15.63 55.03-14.65 55.81-13.92 56.59-13.18 57.96-13.18ZM82.96-13.18L82.96-13.18 92.04-13.18Q93.41-13.18 94.19-13.92 94.97-14.65 94.97-15.63 94.97-16.6 94.19-17.33 93.41-18.07 92.04-18.07L92.04-18.07 82.96-18.07Q81.59-18.07 80.81-17.33 80.03-16.6 80.03-15.63 80.03-14.65 80.81-13.92 81.59-13.18 82.96-13.18ZM57.96-19.43L57.96-19.43 67.04-19.43Q68.41-19.43 69.19-20.17 69.97-20.9 69.97-21.88 69.97-22.85 69.19-23.58 68.41-24.32 67.04-24.32L67.04-24.32 57.96-24.32Q56.59-24.32 55.81-23.58 55.03-22.85 55.03-21.88 55.03-20.9 55.81-20.17 56.59-19.43 57.96-19.43ZM82.96-19.43L82.96-19.43 92.04-19.43Q93.41-19.43 94.19-20.17 94.97-20.9 94.97-21.88 94.97-22.85 94.19-23.58 93.41-24.32 92.04-24.32L92.04-24.32 82.96-24.32Q81.59-24.32 80.81-23.58 80.03-22.85 80.03-21.88 80.03-20.9 80.81-20.17 81.59-19.43 82.96-19.43ZM64.21-25.68L64.21-25.68 85.79-25.68Q87.16-25.68 87.94-26.42 88.72-27.15 88.72-28.13 88.72-29.1 87.94-29.83 87.16-30.57 85.79-30.57L85.79-30.57 64.21-30.57Q62.84-30.57 62.06-29.83 61.28-29.1 61.28-28.13 61.28-27.15 62.06-26.42 62.84-25.68 64.21-25.68ZM107.95-0.68L107.95-0.68 117.04-0.68Q118.4-0.68 119.18-1.42 119.97-2.15 119.97-3.13 119.97-4.1 119.18-4.83 118.4-5.57 117.04-5.57L117.04-5.57 107.95-5.57Q106.59-5.57 105.81-4.83 105.02-4.1 105.02-3.13 105.02-2.15 105.81-1.42 106.59-0.68 107.95-0.68ZM107.95-6.93L107.95-6.93 117.04-6.93Q118.4-6.93 119.18-7.67 119.97-8.4 119.97-9.38 119.97-10.35 119.18-11.08 118.4-11.82 117.04-11.82L117.04-11.82 107.95-11.82Q106.59-11.82 105.81-11.08 105.02-10.35 105.02-9.38 105.02-8.4 105.81-7.67 106.59-6.93 107.95-6.93ZM107.95-13.18L107.95-13.18 117.04-13.18Q118.4-13.18 119.18-13.92 119.97-14.65 119.97-15.63 119.97-16.6 119.18-17.33 118.4-18.07 117.04-18.07L117.04-18.07 107.95-18.07Q106.59-18.07 105.81-17.33 105.02-16.6 105.02-15.63 105.02-14.65 105.81-13.92 106.59-13.18 107.95-13.18ZM107.95-19.43L107.95-19.43 117.04-19.43Q118.4-19.43 119.18-20.17 119.97-20.9 119.97-21.88 119.97-22.85 119.18-23.58 118.4-24.32 117.04-24.32L117.04-24.32 107.95-24.32Q106.59-24.32 105.81-23.58 105.02-22.85 105.02-21.88 105.02-20.9 105.81-20.17 106.59-19.43 107.95-19.43ZM132.95-19.43L132.95-19.43 142.04-19.43Q143.4-19.43 144.18-20.17 144.97-20.9 144.97-21.88 144.97-22.85 144.18-23.58 143.4-24.32 142.04-24.32L142.04-24.32 132.95-24.32Q131.59-24.32 130.81-23.58 130.02-22.85 130.02-21.88 130.02-20.9 130.81-20.17 131.59-19.43 132.95-19.43ZM107.95-25.68L107.95-25.68 135.79-25.68Q137.15-25.68 137.93-26.42 138.72-27.15 138.72-28.13 138.72-29.1 137.93-29.83 137.15-30.57 135.79-30.57L135.79-30.57 107.95-30.57Q106.59-30.57 105.81-29.83 105.02-29.1 105.02-28.13 105.02-27.15 105.81-26.42 106.59-25.68 107.95-25.68ZM164.2-0.68L164.2-0.68 192.03-0.68Q193.4-0.68 194.18-1.42 194.96-2.15 194.96-3.13 194.96-4.1 194.18-4.83 193.4-5.57 192.03-5.57L192.03-5.57 164.2-5.57Q162.83-5.57 162.05-4.83 161.27-4.1 161.27-3.13 161.27-2.15 162.05-1.42 162.83-0.68 164.2-0.68ZM157.95-6.93L157.95-6.93 167.03-6.93Q168.4-6.93 169.18-7.67 169.96-8.4 169.96-9.38 169.96-10.35 169.18-11.08 168.4-11.82 167.03-11.82L167.03-11.82 157.95-11.82Q156.58-11.82 155.8-11.08 155.02-10.35 155.02-9.38 155.02-8.4 155.8-7.67 156.58-6.93 157.95-6.93ZM182.95-6.93L182.95-6.93 192.03-6.93Q193.4-6.93 194.18-7.67 194.96-8.4 194.96-9.38 194.96-10.35 194.18-11.08 193.4-11.82 192.03-11.82L192.03-11.82 182.95-11.82Q181.58-11.82 180.8-11.08 180.02-10.35 180.02-9.38 180.02-8.4 180.8-7.67 181.58-6.93 182.95-6.93ZM157.95-13.18L157.95-13.18 167.03-13.18Q168.4-13.18 169.18-13.92 169.96-14.65 169.96-15.63 169.96-16.6 169.18-17.33 168.4-18.07 167.03-18.07L167.03-18.07 157.95-18.07Q156.58-18.07 155.8-17.33 155.02-16.6 155.02-15.63 155.02-14.65 155.8-13.92 156.58-13.18 157.95-13.18ZM182.95-13.18L182.95-13.18 192.03-13.18Q193.4-13.18 194.18-13.92 194.96-14.65 194.96-15.63 194.96-16.6 194.18-17.33 193.4-18.07 192.03-18.07L192.03-18.07 182.95-18.07Q181.58-18.07 180.8-17.33 180.02-16.6 180.02-15.63 180.02-14.65 180.8-13.92 181.58-13.18 182.95-13.18ZM164.2-19.43L164.2-19.43 192.03-19.43Q193.4-19.43 194.18-20.17 194.96-20.9 194.96-21.88 194.96-22.85 194.18-23.58 193.4-24.32 192.03-24.32L192.03-24.32 164.2-24.32Q162.83-24.32 162.05-23.58 161.27-22.85 161.27-21.88 161.27-20.9 162.05-20.17 162.83-19.43 164.2-19.43ZM182.95-25.68L182.95-25.68 192.03-25.68Q193.4-25.68 194.18-26.42 194.96-27.15 194.96-28.13 194.96-29.1 194.18-29.83 193.4-30.57 192.03-30.57L192.03-30.57 182.95-30.57Q181.58-30.57 180.8-29.83 180.02-29.1 180.02-28.13 180.02-27.15 180.8-26.42 181.58-25.68 182.95-25.68ZM182.95-31.93L182.95-31.93 192.03-31.93Q193.4-31.93 194.18-32.67 194.96-33.4 194.96-34.38 194.96-35.35 194.18-36.08 193.4-36.82 192.03-36.82L192.03-36.82 182.95-36.82Q181.58-36.82 180.8-36.08 180.02-35.35 180.02-34.38 180.02-33.4 180.8-32.67 181.58-31.93 182.95-31.93ZM207.95-0.68L207.95-0.68 217.03-0.68Q218.4-0.68 219.18-1.42 219.96-2.15 219.96-3.13 219.96-4.1 219.18-4.83 218.4-5.57 217.03-5.57L217.03-5.57 207.95-5.57Q206.58-5.57 205.8-4.83 205.02-4.1 205.02-3.13 205.02-2.15 205.8-1.42 206.58-0.68 207.95-0.68ZM239.2-0.68L239.2-0.68 248.28-0.68Q249.65-0.68 250.43-1.42 251.21-2.15 251.21-3.13 251.21-4.1 250.43-4.83 249.65-5.57 248.28-5.57L248.28-5.57 239.2-5.57Q237.83-5.57 237.05-4.83 236.27-4.1 236.27-3.13 236.27-2.15 237.05-1.42 237.83-0.68 239.2-0.68ZM207.95-6.93L207.95-6.93 223.28-6.93Q224.65-6.93 225.43-7.67 226.21-8.4 226.21-9.38 226.21-10.35 225.43-11.08 224.65-11.82 223.28-11.82L223.28-11.82 207.95-11.82Q206.58-11.82 205.8-11.08 205.02-10.35 205.02-9.38 205.02-8.4 205.8-7.67 206.58-6.93 207.95-6.93ZM232.95-6.93L232.95-6.93 248.28-6.93Q249.65-6.93 250.43-7.67 251.21-8.4 251.21-9.38 251.21-10.35 250.43-11.08 249.65-11.82 248.28-11.82L248.28-11.82 232.95-11.82Q231.58-11.82 230.8-11.08 230.02-10.35 230.02-9.38 230.02-8.4 230.8-7.67 231.58-6.93 232.95-6.93ZM207.95-13.18L207.95-13.18 248.28-13.18Q249.65-13.18 250.43-13.92 251.21-14.65 251.21-15.63 251.21-16.6 250.43-17.33 249.65-18.07 248.28-18.07L248.28-18.07 207.95-18.07Q206.58-18.07 205.8-17.33 205.02-16.6 205.02-15.63 205.02-14.65 205.8-13.92 206.58-13.18 207.95-13.18ZM207.95-19.43L207.95-19.43 217.03-19.43Q218.4-19.43 219.18-20.17 219.96-20.9 219.96-21.88 219.96-22.85 219.18-23.58 218.4-24.32 217.03-24.32L217.03-24.32 207.95-24.32Q206.58-24.32 205.8-23.58 205.02-22.85 205.02-21.88 205.02-20.9 205.8-20.17 206.58-19.43 207.95-19.43ZM226.26-19.43L226.26-19.43 229.97-19.43Q231.04-19.43 231.75-20.17 232.46-20.9 232.46-21.88 232.46-22.85 231.75-23.58 231.04-24.32 229.97-24.32L229.97-24.32 226.26-24.32Q225.19-24.32 224.48-23.58 223.77-22.85 223.77-21.88 223.77-20.9 224.48-20.17 225.19-19.43 226.26-19.43ZM239.2-19.43L239.2-19.43 248.28-19.43Q249.65-19.43 250.43-20.17 251.21-20.9 251.21-21.88 251.21-22.85 250.43-23.58 249.65-24.32 248.28-24.32L248.28-24.32 239.2-24.32Q237.83-24.32 237.05-23.58 236.27-22.85 236.27-21.88 236.27-20.9 237.05-20.17 237.83-19.43 239.2-19.43ZM207.95-25.68L207.95-25.68 217.03-25.68Q218.4-25.68 219.18-26.42 219.96-27.15 219.96-28.13 219.96-29.1 219.18-29.83 218.4-30.57 217.03-30.57L217.03-30.57 207.95-30.57Q206.58-30.57 205.8-29.83 205.02-29.1 205.02-28.13 205.02-27.15 205.8-26.42 206.58-25.68 207.95-25.68ZM239.2-25.68L239.2-25.68 248.28-25.68Q249.65-25.68 250.43-26.42 251.21-27.15 251.21-28.13 251.21-29.1 250.43-29.83 249.65-30.57 248.28-30.57L248.28-30.57 239.2-30.57Q237.83-30.57 237.05-29.83 236.27-29.1 236.27-28.13 236.27-27.15 237.05-26.42 237.83-25.68 239.2-25.68ZM207.95-31.93L207.95-31.93 217.03-31.93Q218.4-31.93 219.18-32.67 219.96-33.4 219.96-34.38 219.96-35.35 219.18-36.08 218.4-36.82 217.03-36.82L217.03-36.82 207.95-36.82Q206.58-36.82 205.8-36.08 205.02-35.35 205.02-34.38 205.02-33.4 205.8-32.67 206.58-31.93 207.95-31.93ZM239.2-31.93L239.2-31.93 248.28-31.93Q249.65-31.93 250.43-32.67 251.21-33.4 251.21-34.38 251.21-35.35 250.43-36.08 249.65-36.82 248.28-36.82L248.28-36.82 239.2-36.82Q237.83-36.82 237.05-36.08 236.27-35.35 236.27-34.38 236.27-33.4 237.05-32.67 237.83-31.93 239.2-31.93ZM207.95-38.18L207.95-38.18 217.03-38.18Q218.4-38.18 219.18-38.92 219.96-39.65 219.96-40.63 219.96-41.6 219.18-42.33 218.4-43.07 217.03-43.07L217.03-43.07 207.95-43.07Q206.58-43.07 205.8-42.33 205.02-41.6 205.02-40.63 205.02-39.65 205.8-38.92 206.58-38.18 207.95-38.18ZM239.2-38.18L239.2-38.18 248.28-38.18Q249.65-38.18 250.43-38.92 251.21-39.65 251.21-40.63 251.21-41.6 250.43-42.33 249.65-43.07 248.28-43.07L248.28-43.07 239.2-43.07Q237.83-43.07 237.05-42.33 236.27-41.6 236.27-40.63 236.27-39.65 237.05-38.92 237.83-38.18 239.2-38.18ZM264.2-0.68L264.2-0.68 292.03-0.68Q293.4-0.68 294.18-1.42 294.96-2.15 294.96-3.13 294.96-4.1 294.18-4.83 293.4-5.57 292.03-5.57L292.03-5.57 264.2-5.57Q262.83-5.57 262.05-4.83 261.27-4.1 261.27-3.13 261.27-2.15 262.05-1.42 262.83-0.68 264.2-0.68ZM257.95-6.93L257.95-6.93 267.03-6.93Q268.4-6.93 269.18-7.67 269.96-8.4 269.96-9.38 269.96-10.35 269.18-11.08 268.4-11.82 267.03-11.82L267.03-11.82 257.95-11.82Q256.58-11.82 255.8-11.08 255.02-10.35 255.02-9.38 255.02-8.4 255.8-7.67 256.58-6.93 257.95-6.93ZM282.95-6.93L282.95-6.93 292.03-6.93Q293.4-6.93 294.18-7.67 294.96-8.4 294.96-9.38 294.96-10.35 294.18-11.08 293.4-11.82 292.03-11.82L292.03-11.82 282.95-11.82Q281.58-11.82 280.8-11.08 280.02-10.35 280.02-9.38 280.02-8.4 280.8-7.67 281.58-6.93 282.95-6.93ZM264.2-13.18L264.2-13.18 292.03-13.18Q293.4-13.18 294.18-13.92 294.96-14.65 294.96-15.63 294.96-16.6 294.18-17.33 293.4-18.07 292.03-18.07L292.03-18.07 264.2-18.07Q262.83-18.07 262.05-17.33 261.27-16.6 261.27-15.63 261.27-14.65 262.05-13.92 262.83-13.18 264.2-13.18ZM282.95-19.43L282.95-19.43 292.03-19.43Q293.4-19.43 294.18-20.17 294.96-20.9 294.96-21.88 294.96-22.85 294.18-23.58 293.4-24.32 292.03-24.32L292.03-24.32 282.95-24.32Q281.58-24.32 280.8-23.58 280.02-22.85 280.02-21.88 280.02-20.9 280.8-20.17 281.58-19.43 282.95-19.43ZM264.2-25.68L264.2-25.68 285.78-25.68Q287.15-25.68 287.93-26.42 288.71-27.15 288.71-28.13 288.71-29.1 287.93-29.83 287.15-30.57 285.78-30.57L285.78-30.57 264.2-30.57Q262.83-30.57 262.05-29.83 261.27-29.1 261.27-28.13 261.27-27.15 262.05-26.42 262.83-25.68 264.2-25.68ZM320.44-0.68L320.44-0.68 329.53-0.68Q330.89-0.68 331.67-1.42 332.46-2.15 332.46-3.13 332.46-4.1 331.67-4.83 330.89-5.57 329.53-5.57L329.53-5.57 320.44-5.57Q319.08-5.57 318.3-4.83 317.51-4.1 317.51-3.13 317.51-2.15 318.3-1.42 319.08-0.68 320.44-0.68ZM314.19-6.93L314.19-6.93 335.78-6.93Q337.14-6.93 337.92-7.67 338.71-8.4 338.71-9.38 338.71-10.35 337.92-11.08 337.14-11.82 335.78-11.82L335.78-11.82 314.19-11.82Q312.83-11.82 312.05-11.08 311.26-10.35 311.26-9.38 311.26-8.4 312.05-7.67 312.83-6.93 314.19-6.93ZM307.94-13.18L307.94-13.18 317.03-13.18Q318.39-13.18 319.17-13.92 319.96-14.65 319.96-15.63 319.96-16.6 319.17-17.33 318.39-18.07 317.03-18.07L317.03-18.07 307.94-18.07Q306.58-18.07 305.8-17.33 305.01-16.6 305.01-15.63 305.01-14.65 305.8-13.92 306.58-13.18 307.94-13.18ZM332.94-13.18L332.94-13.18 342.03-13.18Q343.39-13.18 344.17-13.92 344.96-14.65 344.96-15.63 344.96-16.6 344.17-17.33 343.39-18.07 342.03-18.07L342.03-18.07 332.94-18.07Q331.58-18.07 330.8-17.33 330.01-16.6 330.01-15.63 330.01-14.65 330.8-13.92 331.58-13.18 332.94-13.18ZM307.94-19.43L307.94-19.43 317.03-19.43Q318.39-19.43 319.17-20.17 319.96-20.9 319.96-21.88 319.96-22.85 319.17-23.58 318.39-24.32 317.03-24.32L317.03-24.32 307.94-24.32Q306.58-24.32 305.8-23.58 305.01-22.85 305.01-21.88 305.01-20.9 305.8-20.17 306.58-19.43 307.94-19.43ZM332.94-19.43L332.94-19.43 342.03-19.43Q343.39-19.43 344.17-20.17 344.96-20.9 344.96-21.88 344.96-22.85 344.17-23.58 343.39-24.32 342.03-24.32L342.03-24.32 332.94-24.32Q331.58-24.32 330.8-23.58 330.01-22.85 330.01-21.88 330.01-20.9 330.8-20.17 331.58-19.43 332.94-19.43ZM307.94-25.68L307.94-25.68 317.03-25.68Q318.39-25.68 319.17-26.42 319.96-27.15 319.96-28.13 319.96-29.1 319.17-29.83 318.39-30.57 317.03-30.57L317.03-30.57 307.94-30.57Q306.58-30.57 305.8-29.83 305.01-29.1 305.01-28.13 305.01-27.15 305.8-26.42 306.58-25.68 307.94-25.68ZM332.94-25.68L332.94-25.68 342.03-25.68Q343.39-25.68 344.17-26.42 344.96-27.15 344.96-28.13 344.96-29.1 344.17-29.83 343.39-30.57 342.03-30.57L342.03-30.57 332.94-30.57Q331.58-30.57 330.8-29.83 330.01-29.1 330.01-28.13 330.01-27.15 330.8-26.42 331.58-25.68 332.94-25.68ZM364.19-0.68L364.19-0.68 385.77-0.68Q387.14-0.68 387.92-1.42 388.7-2.15 388.7-3.13 388.7-4.1 387.92-4.83 387.14-5.57 385.77-5.57L385.77-5.57 364.19-5.57Q362.82-5.57 362.04-4.83 361.26-4.1 361.26-3.13 361.26-2.15 362.04-1.42 362.82-0.68 364.19-0.68ZM357.94-6.93L357.94-6.93 367.02-6.93Q368.39-6.93 369.17-7.67 369.95-8.4 369.95-9.38 369.95-10.35 369.17-11.08 368.39-11.82 367.02-11.82L367.02-11.82 357.94-11.82Q356.57-11.82 355.79-11.08 355.01-10.35 355.01-9.38 355.01-8.4 355.79-7.67 356.57-6.93 357.94-6.93ZM357.94-13.18L357.94-13.18 392.02-13.18Q393.39-13.18 394.17-13.92 394.95-14.65 394.95-15.63 394.95-16.6 394.17-17.33 393.39-18.07 392.02-18.07L392.02-18.07 357.94-18.07Q356.57-18.07 355.79-17.33 355.01-16.6 355.01-15.63 355.01-14.65 355.79-13.92 356.57-13.18 357.94-13.18ZM357.94-19.43L357.94-19.43 367.02-19.43Q368.39-19.43 369.17-20.17 369.95-20.9 369.95-21.88 369.95-22.85 369.17-23.58 368.39-24.32 367.02-24.32L367.02-24.32 357.94-24.32Q356.57-24.32 355.79-23.58 355.01-22.85 355.01-21.88 355.01-20.9 355.79-20.17 356.57-19.43 357.94-19.43ZM382.94-19.43L382.94-19.43 392.02-19.43Q393.39-19.43 394.17-20.17 394.95-20.9 394.95-21.88 394.95-22.85 394.17-23.58 393.39-24.32 392.02-24.32L392.02-24.32 382.94-24.32Q381.57-24.32 380.79-23.58 380.01-22.85 380.01-21.88 380.01-20.9 380.79-20.17 381.57-19.43 382.94-19.43ZM364.19-25.68L364.19-25.68 385.77-25.68Q387.14-25.68 387.92-26.42 388.7-27.15 388.7-28.13 388.7-29.1 387.92-29.83 387.14-30.57 385.77-30.57L385.77-30.57 364.19-30.57Q362.82-30.57 362.04-29.83 361.26-29.1 361.26-28.13 361.26-27.15 362.04-26.42 362.82-25.68 364.19-25.68Z" opacity="1" transform="matrix(1,0,0,1,0,0)" fill="#332885" class="wordmark-text-0" data-fill-palette-color="primary" id="text-0"></path></svg></g></svg></g></svg></g></svg></g><g transform="matrix(1,0,0,1,160.05449664913598,0)"><svg viewBox="0 0 75.41100670172803 59.41100670172803" height="59.41100670172803" width="75.41100670172803"><g><svg xmlns="http://www.w3.org/2000/svg" xmlns:xlink="http://www.w3.org/1999/xlink" version="1.1" x="8" y="0" viewBox="2 2 60 60" style="enable-background:new 0 0 64 64;" xml:space="preserve" height="59.41100670172803" width="59.41100670172803" class="icon-icon-0" data-fill-palette-color="accent" id="icon-0"><path d="M16 45c-1.654 0-3-1.346-3-3h-2c0 1.654-1.346 3-3 3v2c1.654 0 3 1.346 3 3h2c0-1.654 1.346-3 3-3V45zM12 47.031c-0.292-0.393-0.638-0.739-1.031-1.031 0.393-0.292 0.739-0.638 1.031-1.031 0.292 0.393 0.638 0.739 1.031 1.031C12.638 46.292 12.292 46.638 12 47.031z" fill="#332885" data-fill-palette-color="accent"></path><path d="M62 46h-2V19c0-9.374-7.627-17-17.003-17H42.5C32.851 2 25 9.851 25 19.5V27c0 0.552 0.448 1 1 1h3v2c0 0.552 0.448 1 1 1h2.829c-0.413 1.164-1.525 2-2.829 2-0.552 0-1 0.448-1 1v1c0 2.757 2.243 5 5 5h10v6H31c-8.271 0-15 6.729-15 15v1h2v-1c0-7.168 5.832-13 13-13h13.42l7.712 13.496C52.311 61.809 52.643 62 53 62c0.019 0 0.038 0 0.057-0.001 0.379-0.022 0.712-0.256 0.862-0.604L59.659 48H62V46zM45 38H34c-1.654 0-3-1.346-3-3v-0.101c2.279-0.464 4-2.485 4-4.899 0-0.552-0.448-1-1-1h-3v-2c0-0.552-0.448-1-1-1h-3v-6.5C27 10.953 33.953 4 42.5 4h0.497C51.27 4 58 10.729 58 19v27H46v-7C46 38.448 45.552 38 45 38zM52.872 58.76L46.723 48h10.76L52.872 58.76z" fill="#332885" data-fill-palette-color="accent"></path><path d="M26.901 34.433c0.167-0.346 0.12-0.758-0.121-1.058L23 28.649V18c0-2.757-2.243-5-5-5H7c-2.757 0-5 2.243-5 5v12c0 2.757 2.243 5 5 5h19C26.384 35 26.735 34.78 26.901 34.433zM7 33c-1.654 0-3-1.346-3-3V18c0-1.654 1.346-3 3-3h11c1.654 0 3 1.346 3 3v11c0 0.227 0.077 0.447 0.219 0.625l2.7 3.375H7z" fill="#332885" data-fill-palette-color="accent"></path><path d="M12.5 18C8.916 18 6 20.691 6 24s2.916 6 6.5 6 6.5-2.691 6.5-6S16.084 18 12.5 18zM16.84 23h-1.872c-0.042-0.712-0.141-1.643-0.363-2.514C15.7 21.007 16.521 21.909 16.84 23zM12.038 25h0.924c-0.077 1.155-0.271 2.037-0.462 2.559C12.309 27.037 12.115 26.155 12.038 25zM12.038 23c0.077-1.155 0.271-2.037 0.462-2.559 0.191 0.522 0.385 1.404 0.462 2.559H12.038zM10.395 20.486c-0.222 0.87-0.321 1.802-0.363 2.514H8.16C8.479 21.909 9.3 21.007 10.395 20.486zM8.16 25h1.872c0.042 0.712 0.141 1.643 0.363 2.514C9.3 26.993 8.479 26.091 8.16 25zM14.605 27.514c0.222-0.87 0.321-1.802 0.363-2.514h1.872C16.521 26.091 15.7 26.993 14.605 27.514z" fill="#332885" data-fill-palette-color="accent"></path><path d="M36 21c-1.654 0-3-1.346-3-3h-2c0 2.757 2.243 5 5 5s5-2.243 5-5h-2C39 19.654 37.654 21 36 21z" fill="#332885" data-fill-palette-color="accent"></path><rect x="41" y="50" width="2" height="2" fill="#332885" data-fill-palette-color="accent"></rect><rect x="37" y="50" width="2" height="2" fill="#332885" data-fill-palette-color="accent"></rect><rect x="33" y="50" width="2" height="2" fill="#332885" data-fill-palette-color="accent"></rect></svg></g></svg></g><g><rect width="160.05449664913598" height="3.876806003271165" y="54.53420069845686" x="235.46550335086403" fill="#332885" data-fill-palette-color="accent"></rect><rect width="160.05449664913598" height="3.876806003271165" y="54.53420069845686" x="0" fill="#332885" data-fill-palette-color="accent"></rect><rect width="160.05449664913598" height="3.876806003271165" y="46.78058869191453" x="235.46550335086403" fill="#332885" data-fill-palette-color="accent"></rect><rect width="160.05449664913598" height="3.876806003271165" y="46.78058869191453" x="0" fill="#332885" data-fill-palette-color="accent"></rect></g></svg></g><defs></defs></svg><rect width="395.52" height="112.54886453084899" fill="none" stroke="none" visibility="hidden"></rect></g></svg></g></svg>